Coordinates
version=1
nRows=17
nColumns=36
inDegrees=yes

Units are S.I. units (second, meters, Newtons, ...)
If the header above contains a line with 'inDegrees', this indicates whether rotational values are in degrees (yes) or radians (no).

endheader
time	pelvis_tilt	pelvis_list	pelvis_rotation	pelvis_tx	pelvis_ty	pelvis_tz	hip_flexion_r	hip_adduction_r	hip_rotation_r	knee_angle_r	knee_angle_r_beta	ankle_angle_r	subtalar_angle_r	mtp_angle_r	hip_flexion_l	hip_adduction_l	hip_rotation_l	knee_angle_l	knee_angle_l_beta	ankle_angle_l	subtalar_angle_l	mtp_angle_l	lumbar_extension	lumbar_bending	lumbar_rotation	arm_flex_r	arm_add_r	arm_rot_r	elbow_flex_r	pro_sup_r	arm_flex_l	arm_add_l	arm_rot_l	elbow_flex_l	pro_sup_l
      0.00000000	      0.58235242	     -0.05131062	      1.32401899	      0.34994043	      0.96594514	     -0.08454925	     -2.92947969	     -5.24871845	     -7.60583695	      3.95608979	      0.06904679	     -4.60563132	    -18.71616825	     -6.10477798	     -2.91080948	     -3.54218888	     -3.14715972	      4.25884965	      0.07433095	     -0.59175856	    -14.26065536	     -6.10477798	     -5.48837772	     -0.21162092	     -1.40224249	     -2.90316196	     -4.87853734	      6.42336319	     87.45937092	     91.08675598	     -1.40414156	     -3.82486266	     11.46692514	     87.29758703	     92.44789097
      0.01694910	     -0.03316414	     -0.06223747	      1.52680996	      0.35060253	      0.96479474	     -0.08501099	     -2.13541691	     -5.11822822	     -8.42598964	      4.46114725	      0.07786171	     -2.27880265	    -16.88019106	     -6.41699503	     -1.98775370	     -3.41875709	     -3.70805148	      3.65720289	      0.06383023	     -0.02883662	    -12.57126652	     -6.41699503	     -4.30456327	      0.15584055	     -1.61307003	     -3.86247024	     -3.97351698	      3.56084694	     88.54957731	     88.10036370	     -1.84073785	     -4.00813298	     10.44240859	     88.02714840	     88.43834987
      0.03389830	     -0.38203702	      0.36057819	      1.38377570	      0.35051224	      0.96220695	     -0.08453754	     -1.79520161	     -5.63622697	     -9.30130550	      4.26454640	      0.07443038	     -1.85670413	    -17.29989200	     -6.63703981	     -1.68876819	     -2.97053756	     -3.91166344	      3.32846405	      0.05809266	      0.65996955	    -11.38032475	     -6.63703981	     -4.03216782	     -0.44067419	     -1.51013532	     -3.96899624	     -3.86614055	      3.60328754	     88.63091380	     85.09528487	     -1.48484329	     -4.54245793	     10.50836724	     88.26586371	     84.96199490
      0.05084750	      0.12724374	      0.66929834	      1.57971520	      0.34990249	      0.96352961	     -0.08439227	     -2.57242240	     -6.00450580	     -9.70702750	      3.76660992	      0.06573974	     -1.35338795	    -17.01724731	     -6.70752617	     -2.68760103	     -2.61446989	     -3.94479355	      2.47397974	      0.04317909	      0.59788790	    -11.11214638	     -6.70752617	     -4.58630619	     -0.99212940	     -1.48734639	     -4.20360832	     -3.87031672	      4.00945285	     88.62628174	     84.42484782	     -0.74260985	     -4.80085093	     10.91149214	     88.47204871	     84.07440443
      0.06779660	      0.43443090	      0.71874183	      1.61886176	      0.34963841	      0.96421156	     -0.08445582	     -2.99370445	     -6.04921196	    -10.19530432	      3.60871069	      0.06298388	     -0.79962734	    -16.53833800	     -7.00305871	     -3.30084337	     -2.59131331	     -3.79783659	      1.94473833	      0.03394209	      0.71235373	    -10.76809554	     -7.00305871	     -4.88198401	     -1.17652483	     -1.21769447	     -4.49559284	     -3.73102813	      4.09605207	     89.25287499	     87.18184374	     -0.13087935	     -4.93405700	     11.58564879	     88.65434935	     86.55913642
      0.08474580	      0.79642309	      0.75941002	      1.54676022	      0.34918196	      0.96466135	     -0.08415085	     -3.48945054	     -6.01717890	    -10.15748609	      3.32273354	      0.05799264	     -0.62584211	    -16.82540913	     -7.09741361	     -3.89717677	     -2.58258346	     -3.55085470	      1.57574959	      0.02750202	      0.98878433	    -10.22614461	     -7.09741361	     -5.11645973	     -1.44679004	     -1.20182143	     -4.49649109	     -3.56869082	      4.57309557	     89.44479195	     84.59031821	      0.20531745	     -5.24127773	     12.10955143	     88.64107700	     84.15914412
      0.10169490	      0.93737369	      0.72831588	      1.59951534	      0.34894053	      0.96476136	     -0.08431009	     -3.75297561	     -5.93075980	    -10.32121635	      3.09594179	      0.05403438	     -0.47731614	    -16.97744650	     -7.25045150	     -4.15669930	     -2.66517757	     -2.97256309	      1.36140763	      0.02376105	      1.05226121	    -10.30258173	     -7.25045150	     -5.11214349	     -1.56894329	     -1.14586126	     -4.62679069	     -3.25710103	      4.20297164	     89.64638170	     86.39677395	      0.49458353	     -5.46771550	     12.36371258	     88.33806743	     87.49214954
      0.11864410	      1.08335883	      0.67358985	      1.68487741	      0.34851338	      0.96468237	     -0.08416306	     -4.04936942	     -5.77200082	    -10.25831200	      2.85573743	      0.04984202	     -0.53845109	    -17.29467536	     -7.36031037	     -4.39370292	     -2.74259204	     -2.35778192	      1.27855218	      0.02231495	      1.05075718	    -10.55855259	     -7.36031037	     -5.11457994	     -1.64128679	     -1.31393279	     -4.53938228	     -3.14064808	      4.42223296	     89.62209638	     83.14134082	      0.41583680	     -5.49035973	     12.48296161	     88.18975274	     84.46481779
      0.13559320	      1.36090907	      0.62397779	      1.67620929	      0.34835546	      0.96500755	     -0.08410097	     -4.45485967	     -5.66524634	    -10.44279192	      2.66796738	      0.04656482	     -0.34358173	    -16.88968801	     -7.39899399	     -4.75202373	     -2.86951936	     -2.51610378	      1.20405702	      0.02101476	      1.54866820	     -9.54864508	     -7.39899399	     -5.34586141	     -1.63288498	     -1.36339490	     -4.43956615	     -3.06216463	      4.63464270	     89.71960223	     80.10271286	      0.53016216	     -5.71723699	     12.85233381	     88.23714968	     81.34137200
      0.15254240	      1.45436898	      0.60684875	      1.79549024	      0.34800019	      0.96520334	     -0.08400771	     -4.68826423	     -5.55252072	    -10.48275939	      2.52597606	      0.04408660	     -0.68488552	    -17.09248830	     -7.44706757	     -4.84718807	     -2.96358842	     -1.89301809	      1.22213569	      0.02133029	      1.03203097	    -10.41956238	     -7.44706757	     -5.39491622	     -1.68816229	     -1.52353818	     -4.40587418	     -2.83303733	      4.16372380	     89.49133367	     84.66918486	      0.40643478	     -5.83676107	     12.35701022	     88.15563539	     86.43869069
      0.16949150	      1.62746950	      0.62687562	      1.90411456	      0.34802884	      0.96556864	     -0.08416045	     -4.99550670	     -5.51419620	    -10.59889345	      2.39241379	      0.04175550	     -0.83024431	    -17.07970998	     -7.46921341	     -5.04754961	     -3.01802284	     -1.66898118	      1.23179916	      0.02149895	      0.82115113	    -10.58576691	     -7.46921341	     -5.54745851	     -1.72372802	     -1.62175993	     -4.37338172	     -2.75864732	      4.06968973	     89.55607066	     84.47816919	      0.35879957	     -6.00548770	     12.38138095	     88.15780754	     86.36766797
      0.18644070	      1.72922053	      0.61046417	      1.93283050	      0.34778961	      0.96553571	     -0.08399584	     -5.19324812	     -5.42257875	    -10.61740253	      2.25299811	      0.03932224	     -0.83710705	    -16.96357775	     -7.48461409	     -5.15457406	     -3.09653405	     -1.46232307	      1.19292960	      0.02082055	      0.69137150	    -10.68450994	     -7.48461409	     -5.67340391	     -1.74708459	     -1.80070471	     -4.39129762	     -2.60972881	      3.99585437	     89.67389551	     84.17161654	      0.34659739	     -6.09628807	     12.40508594	     88.15108218	     85.99788125
      0.20338980	      1.84346447	      0.53475386	      1.97393043	      0.34778057	      0.96578956	     -0.08423796	     -5.37208406	     -5.30096220	    -10.62078200	      2.18453256	      0.03812729	     -1.07200235	    -17.06055467	     -7.49251446	     -5.27082063	     -3.20782645	     -1.23041045	      1.13897156	      0.01987880	      0.59509831	    -10.74535325	     -7.49251446	     -5.78689744	     -1.71053381	     -2.06489536	     -4.41673844	     -2.50789661	      4.26330729	     89.66909203	     83.60081646	      0.17370137	     -6.19662436	     12.28411214	     88.24315108	     85.15238857
      0.22033900	      1.92407735	      0.45976426	      2.07468675	      0.34756592	      0.96580145	     -0.08424398	     -5.52798459	     -5.18538555	    -10.77140709	      2.10144273	      0.03667709	     -1.12868157	    -16.95206701	     -7.49729353	     -5.33435723	     -3.31922168	     -1.11633626	      1.07872298	      0.01882727	      0.64312984	    -10.52863980	     -7.49729353	     -5.86323209	     -1.64180509	     -2.20546911	     -4.55374955	     -2.35781502	      4.20141514	     89.67732063	     83.43427643	      0.09552721	     -6.25191222	     12.21442378	     88.28202888	     85.01997105
      0.23728810	      1.96107067	      0.40120758	      2.22904416	      0.34755081	      0.96595624	     -0.08456287	     -5.62517516	     -5.09960149	    -10.87279514	      2.00875030	      0.03505931	     -1.38169814	    -17.10952135	     -7.49852230	     -5.33066580	     -3.40336552	     -0.68969963	      1.01965489	      0.01779634	      0.43779928	    -10.85440695	     -7.49852230	     -5.86046127	     -1.60433698	     -2.41756875	     -4.62269237	     -2.30475744	      4.46157699	     89.52498235	     79.91125354	      0.04106167	     -6.33131120	     12.36761067	     88.32380736	     81.28911039
      0.25423730	      1.96818309	      0.37168021	      2.30659153	      0.34747471	      0.96593363	     -0.08453380	     -5.66519478	     -5.06746212	    -10.96655536	      1.95345521	      0.03409423	     -1.51334508	    -17.10941080	     -7.49945629	     -5.33295077	     -3.43602690	     -0.70228844	      0.99078019	      0.01729238	      0.58416258	    -10.31705091	     -7.49945629	     -5.87061388	     -1.57034248	     -2.56513051	     -4.58518774	     -2.21614481	      4.23502320	     89.27505775	     82.57403021	      0.04212332	     -6.26157148	     12.17231102	     88.26587989	     84.10128904
      0.27118640	      2.02113636	      0.33928665	      2.35574747	      0.34747808	      0.96606597	     -0.08467029	     -5.72864012	     -5.04425599	    -11.03623813	      1.89676139	      0.03310473	     -1.61255939	    -17.14795206	     -7.49979231	     -5.39009580	     -3.47606889	     -0.59219119	      0.95110404	      0.01659990	      0.59049403	    -10.21208097	     -7.49979231	     -5.92840316	     -1.53663381	     -2.60920900	     -4.55931870	     -2.16628409	      4.11715445	     89.07614128	     82.14410646	      0.00500772	     -6.21167434	     12.12273992	     88.13364237	     83.57577408
